<?xml version="1.0" encoding="UTF-8" standalone="no"?>
<svg
   xmlns:dc="http://purl.org/dc/elements/1.1/"
   xmlns:cc="http://creativecommons.org/ns#"
   xmlns:rdf="http://www.w3.org/1999/02/22-rdf-syntax-ns#"
   xmlns:svg="http://www.w3.org/2000/svg"
   xmlns="http://www.w3.org/2000/svg"
   xmlns:sodipodi="http://sodipodi.sourceforge.net/DTD/sodipodi-0.dtd"
   xmlns:inkscape="http://www.inkscape.org/namespaces/inkscape"
   viewBox="0 0 542.5 207.02"
   version="1.1"
   id="svg38"
   sodipodi:docname="Q.svg"
   inkscape:version="0.92.4 5da689c313, 2019-01-14">
  <metadata
     id="metadata44">
    <rdf:RDF>
      <cc:Work
         rdf:about="">
        <dc:format>image/svg+xml</dc:format>
        <dc:type
           rdf:resource="http://purl.org/dc/dcmitype/StillImage" />
      </cc:Work>
    </rdf:RDF>
  </metadata>
  <defs
     id="defs42" />
  <sodipodi:namedview
     pagecolor="#ffffff"
     bordercolor="#666666"
     borderopacity="1"
     objecttolerance="10"
     gridtolerance="10"
     guidetolerance="10"
     inkscape:pageopacity="0"
     inkscape:pageshadow="2"
     inkscape:window-width="3840"
     inkscape:window-height="2025"
     id="namedview40"
     showgrid="false"
     inkscape:zoom="4.5599458"
     inkscape:cx="287.73127"
     inkscape:cy="102.44569"
     inkscape:window-x="0"
     inkscape:window-y="0"
     inkscape:window-maximized="1"
     inkscape:current-layer="svg38" />
  <title
     id="title2">Q typographic styles</title>
  <path
     d="M136.23913,35.39989q11.0874,0,17.856,7.416,6.76611,7.4165,6.76855,19.51172,0,12.81592-7.77637,20.44824l6.76855,5.40039-3.45654,4.31934-7.84814-6.33594a23.33969,23.33969,0,0,1-12.312,3.09668q-11.08813,0-17.856-7.56055-6.76831-7.56006-6.76807-19.36816,0-11.5188,6.624-19.22412Q124.86242,35.40062,136.23913,35.39989ZM118.45544,62.32763q0,9.43359,4.85986,15.2998a15.93258,15.93258,0,0,0,12.92383,5.86816,18.34426,18.34426,0,0,0,7.12793-1.44043l-5.688-4.53516,3.6001-4.17578,6.84033,5.47168q5.90259-5.90332,5.90381-16.48828,0-9.28784-4.752-15.228-4.752-5.93994-13.104-5.93994a15.66889,15.66889,0,0,0-12.96,5.97607Q118.45544,53.113,118.45544,62.32763Z"
     id="path4" />
  <path
     d="M111.90344,159.20458a26.53432,26.53432,0,0,1,7.09863-18.70117,22.65226,22.65226,0,0,1,34.021.03516,26.53118,26.53118,0,0,1,7.11963,18.666,26.18746,26.18746,0,0,1-4.12891,14.415,24.35349,24.35349,0,0,1-10.70264,9.39355,16.89325,16.89325,0,0,0,2.9375,5.417,5.20324,5.20324,0,0,0,4.02637,1.709,6.82672,6.82672,0,0,0,4.44189-1.62012,6.342,6.342,0,0,0,2.27441-4.42773q.14355-1.29639.792-1.2959.791,0,.792,1.51172a19.79839,19.79839,0,0,1-.36914,3.67188,24.99822,24.99822,0,0,1-1.25488,4.248,8.88933,8.88933,0,0,1-2.76758,3.81641,7.01315,7.01315,0,0,1-4.53662,1.51172,6.67214,6.67214,0,0,1-3.38379-.82812,8.13556,8.13556,0,0,1-2.26807-1.83594,9.72021,9.72021,0,0,1-1.51221-3.168,30.59583,30.59583,0,0,1-.936-3.52832q-.25269-1.36816-.68359-4.10352a22.852,22.852,0,0,1-6.84033,1.08008,22.54046,22.54046,0,0,1-17.02246-7.55273A25.89733,25.89733,0,0,1,111.90344,159.20458Zm7.416,0a38.35136,38.35136,0,0,0,1.252,10.293,19.64215,19.64215,0,0,0,3.293,7.02832,22.47735,22.47735,0,0,0,3.792,3.873,13.48344,13.48344,0,0,0,3.543,1.97168,7.89822,7.89822,0,0,1-1.0083-3.42773,6.04575,6.04575,0,0,1,1.65625-4.18555,5.47453,5.47453,0,0,1,4.248-1.82617q5.11157,0,8.13574,7.582,8.49536-6.24023,8.49609-21.30859a37.04407,37.04407,0,0,0-1.62012-11.49707,20.08878,20.08878,0,0,0-4.21191-7.68945,18.0179,18.0179,0,0,0-5.36377-4.02539,13.10517,13.10517,0,0,0-5.58008-1.29395,12.91347,12.91347,0,0,0-5.44971,1.25781,18.04934,18.04934,0,0,0-5.3042,3.918,19.71475,19.71475,0,0,0-4.23,7.68945A37.39032,37.39032,0,0,0,119.31945,159.20458ZM131.775,178.94286a5.79865,5.79865,0,0,0,.252,1.64258,4.07691,4.07691,0,0,0,1.29639,1.78516,3.90745,3.90745,0,0,0,2.69971.92871,12.82016,12.82016,0,0,0,6.33594-1.64258q-1.36816-7.14111-6.26367-7.1416a3.9618,3.9618,0,0,0-3.13232,1.35645A4.539,4.539,0,0,0,131.775,178.94286Z"
     id="path6" />
  <path
     d="M246.30707,202.021c-19.585,0-26.6416-4.46484-26.8584-18.29-11.16016-2.95215-19.22559-14.40137-19.22559-27.29,0-14.97754,10.94531-28.01074,24.91406-28.01074,13.96973,0,24.98633,13.0332,24.98633,28.01074,0,12.81738-8.06445,24.26563-19.15332,27.21777a29.43268,29.43268,0,0,0-.14453,3.457c0,10.5127,5.61719,12.74512,15.48145,12.74512Zm-7.7041-45.65234c0-20.59375-3.74414-25.77832-13.53711-25.77832s-13.32129,5.25684-13.32129,25.85059,3.60059,25.85059,13.39258,25.85059C234.93012,182.29149,238.603,176.96239,238.603,156.36864Z"
     id="path8" />
  <path
     d="M250.01118,100.86376a31.5243,31.5243,0,0,1-4.166.75586,38.02117,38.02117,0,0,1-4.20117.22852q-6.11719,0-9.82617-3.35742t-4.02539-9.61523q-.84375.14063-1.63477.19336t-1.5293.05273a26.53022,26.53022,0,0,1-10.03711-1.82812,20.74242,20.74242,0,0,1-7.68164-5.30859,23.80335,23.80335,0,0,1-4.86914-8.543,36.17137,36.17137,0,0,1-1.70508-11.56641,36.31888,36.31888,0,0,1,1.6875-11.47852,24.4434,24.4434,0,0,1,4.92188-8.70117,20.189,20.189,0,0,1,7.68164-5.27344,26.78881,26.78881,0,0,1,10.002-1.82812,26.33285,26.33285,0,0,1,10.10742,1.8457,21.06206,21.06206,0,0,1,7.61133,5.25586,23.84238,23.84238,0,0,1,4.9043,8.61328,36.38,36.38,0,0,1,1.70508,11.56641q0,9.59766-3.91992,16.17188a21.2526,21.2526,0,0,1-10.5293,9.21094,10.39363,10.39363,0,0,0,1.89844,6.22266q1.75781,2.21484,6.39844,2.21484a16.2138,16.2138,0,0,0,3.42773-.43945,18.68954,18.68954,0,0,0,2.83008-.791h.94922ZM241.7143,61.87548q0-10.19531-4.57031-15.73242t-12.48047-5.53711q-7.98047,0-12.5332,5.53711t-4.55273,15.73242q0,10.30078,4.64063,15.76758a16.87944,16.87944,0,0,0,24.873,0Q241.7143,72.17626,241.7143,61.87548Z"
     id="path10" />
  <path
     d="M317.92336,38.60473a42.19045,42.19045,0,0,1,11.05078,1.15186,11.15771,11.15771,0,0,1,6.15625,3.96,15.24877,15.24877,0,0,1,2.62891,7.45215,102.97983,102.97983,0,0,1,.53906,11.55566,102.32381,102.32381,0,0,1-.57617,11.916,15.9533,15.9533,0,0,1-2.66406,7.63281,11.41371,11.41371,0,0,1-6.15527,4.06738,39.4763,39.4763,0,0,1-10.97949,1.22363,55.78171,55.78171,0,0,1-8.42383-.53906,19.48124,19.48124,0,0,1-5.79687-1.72852,9.45146,9.45146,0,0,1-3.63574-3.0957,14.39865,14.39865,0,0,1-1.97949-4.64453,31.6835,31.6835,0,0,1-.82812-6.4082q-.14648-3.6709-.14453-8.42383a87.7348,87.7348,0,0,1,.64844-11.772A14.85361,14.85361,0,0,1,300.607,43.5725a11.73754,11.73754,0,0,1,6.2998-3.85205A43.54606,43.54606,0,0,1,317.92336,38.60473Zm0,4.82373a57.03408,57.03408,0,0,0-8.28125.46826,6.7838,6.7838,0,0,0-4.53516,2.41162,11.2928,11.2928,0,0,0-1.9082,5.79639q-.39551,3.85254-.39648,10.61963,0,4.60913.1084,7.88477a32.53216,32.53216,0,0,0,.57617,5.50781,9.20027,9.20027,0,0,0,1.44043,3.56348,5.97048,5.97048,0,0,0,2.66406,2.0166,13.95278,13.95278,0,0,0,4.21094.86328q2.51953.18164,6.12109.17969,3.31055,0,5.72363-.17969a12.88543,12.88543,0,0,0,4.03223-.86328,6.15492,6.15492,0,0,0,2.5918-1.98047,9.61007,9.61007,0,0,0,1.51172-3.52734,29.39757,29.39757,0,0,0,.68359-5.50879q.14355-3.27539.14453-7.95605a100.19793,100.19793,0,0,0-.43164-10.54785,11.51763,11.51763,0,0,0-1.94434-5.7959,6.82553,6.82553,0,0,0-4.42871-2.44824A48.613,48.613,0,0,0,317.92336,43.42846Zm12.959,47.44824a21.96127,21.96127,0,0,1,2.62891.17969,12.01064,12.01064,0,0,1,2.87891.7207,7.84642,7.84642,0,0,1,2.44922,1.47559,3.91811,3.91811,0,0,1,1.25977,2.44824H323.107a22.12459,22.12459,0,0,1-2.62793-.17969,12.13449,12.13449,0,0,1-2.87988-.7207A7.82164,7.82164,0,0,1,315.1509,93.324a3.91447,3.91447,0,0,1-1.26074-2.44727Z"
     id="path12" />
  <path
     d="M289.48293,158.3767a24.66378,24.66378,0,0,1,2.124-10.43945,23.45881,23.45881,0,0,1,5.72461-7.8125,24.8774,24.8774,0,0,1,8.459-4.89551,32.38482,32.38482,0,0,1,20.66406,0,24.89563,24.89563,0,0,1,8.46094,4.89551,23.49653,23.49653,0,0,1,5.72363,7.8125,26.71907,26.71907,0,0,1,0,20.87988,23.46291,23.46291,0,0,1-5.72363,7.81152,24.8659,24.8659,0,0,1-8.46094,4.89648,32.40254,32.40254,0,0,1-20.66406,0,24.8477,24.8477,0,0,1-8.459-4.89648,23.4253,23.4253,0,0,1-5.72461-7.81152A24.66517,24.66517,0,0,1,289.48293,158.3767Zm58.248,27.43262q-2.01709,2.59131-3.708,4.67969a19.152,19.152,0,0,1-3.63574,3.49219,14.91907,14.91907,0,0,1-4.42871,2.15918,20.80207,20.80207,0,0,1-6.01172.75684,17.654,17.654,0,0,1-7.52344-1.62012q-3.49365-1.62012-6.876-3.56445-3.38525-1.94385-6.91211-3.56348a17.89942,17.89942,0,0,0-7.55957-1.62012,10.21319,10.21319,0,0,0-3.38477.57617,23.116,23.116,0,0,0-3.168,1.36719l-1.00781-1.15137a17.64921,17.64921,0,0,1,10.22461-2.95215,27.80358,27.80358,0,0,1,7.95508,1.1875q3.99609,1.188,7.8125,2.59277,3.81445,1.40332,7.37988,2.55566a21.73649,21.73649,0,0,0,6.66016,1.15234,16.3345,16.3345,0,0,0,4.10352-.46875,12.01033,12.01033,0,0,0,3.31152-1.40332,14.74279,14.74279,0,0,0,2.80859-2.26855q1.29639-1.333,2.73633-3.05957ZM297.11476,158.3767a27.3443,27.3443,0,0,0,1.29688,8.42383,21.97311,21.97311,0,0,0,3.74414,7.09277,18.47139,18.47139,0,0,0,5.97559,4.89551,18.3116,18.3116,0,0,0,15.9834,0,18.5059,18.5059,0,0,0,5.97656-4.89551,22.03,22.03,0,0,0,3.74414-7.09277,28.027,28.027,0,0,0,0-16.84766,22.04536,22.04536,0,0,0-3.74414-7.0918,18.52135,18.52135,0,0,0-5.97656-4.89648,18.3116,18.3116,0,0,0-15.9834,0,18.48679,18.48679,0,0,0-5.97559,4.89648,21.98833,21.98833,0,0,0-3.74414,7.0918A27.358,27.358,0,0,0,297.11476,158.3767Z"
     id="path14" />
  <path
     d="M394.93905,86.73681c-1.65625,1.08008-4.03223,3.09668-6.12109,3.09668-1.08008,0-1.72754-.36035-1.72754-1.584,0-3.74512,2.376-8.71289,4.68066-10.29687,1.65625-1.15234,3.96-.64844,7.2002-.64844,22.82617-12.0249,33.05078-24.69775,33.05078-28.73047,0-1.36816-1.94434-1.584-3.02441-1.584-2.80859,0-15.91309,3.74414-24.8418,10.2251v.144c5.40039,0,6.91211-.72021,6.91211,1.08008,0,.86377-.791,1.08008-1.43945,1.22363a41.99294,41.99294,0,0,0-11.377,4.03271c-2.73633,1.08008-3.3125.792-3.3125-5.18457-.07227-2.88037-.35937-4.53662.64844-5.9043C399.4039,47.56591,420.06991,38.853,429.43026,38.853a8.742,8.742,0,0,1,8.92871,9.07275c0,11.44922-21.96191,24.5542-30.6748,30.24268,12.74512,2.51953,16.77734,3.24023,20.01758,3.24023a49.27545,49.27545,0,0,0,6.40918-.93555A41.83423,41.83423,0,0,1,430.15,89.5454c-1.08008,1.94434-4.32031,2.01563-11.16016.93555Z"
     id="path16" />
  <path
     d="M404.87655,185.76659c4.752-2.376,8.71289-3.81641,11.80859-5.61719,5.832-3.38379,8.78516-7.99219,8.78516-22.0332,0-14.18555-3.02441-21.96191-14.041-21.96191-10.94531,0-13.82617,7.63281-13.82617,23.97754,0,12.09766,1.584,17.85742,7.05664,19.874l-1.15234,2.16016c-10.80078-3.52832-13.6084-11.2334-13.6084-22.61035,0-15.625,5.32813-25.92187,21.60156-25.92187,15.19336,0,21.67383,9.001,21.67383,24.0498,0,19.29785-10.29687,23.47461-21.16895,28.01074v.21582c6.69531,1.00781,12.88867,6.55273,17.4248,6.55273,2.0166,0,3.45605-1.15234,3.45605-3.67187a13.06991,13.06991,0,0,0-.14355-1.585h2.66406a17.89,17.89,0,0,1,.14355,2.0166c0,4.32031-2.51953,7.56055-8.71289,7.56055-9.43164,0-17.28125-7.48828-21.24121-7.48828-2.44824,0-5.47266,2.44824-7.63281,4.6084l-1.94434-1.80078A29.70922,29.70922,0,0,1,404.87655,185.76659Z"
     id="path18" />
  <path
     d="M522.47456,66.40737a51.75228,51.75228,0,0,0-2.16677-16.50756c-3.73953-11.65806-14.84844-13.09609-22.70425-9.22257-4.06829,2.006-6.19717,5.66225-7.64233,9.767A45.87,45.87,0,0,0,487.741,65.93062c.01007,5.4736.36618,10.899,2.11274,16.17621,2.322,7.01577,6.92614,10.99207,13.38033,11.28156,8.25822.37041,13.41455-2.7479,16.50253-9.933C522.08248,77.99694,522.42385,72.22433,522.47456,66.40737ZM510.92165,86.75255c-4.53488,4.15-9.77666,3.52305-12.60712-1.38743a20.97027,20.97027,0,0,1-2.186-5.55947c-1.66413-7.00671-1.65889-14.15211-1.09076-21.26407.32576-4.07792.95689-8.19469,3.2709-11.78821,3.34872-5.20036,10.40589-5.21229,13.55073.10754A21.02739,21.02739,0,0,1,514.14491,52.73a63.21062,63.21062,0,0,1,1.19281,18.59356c-.25324,3.82428-.50441,7.68721-2.24516,11.74742l-7.17161-9.932-1.63346,1.60255Z"
     id="path20" />
  <path
     d="M507.721,191.74408a30.008,30.008,0,0,1-20.21973-6.53906,24.34038,24.34038,0,0,1-9.7207-18.12012q-.7793-11.70117,8.2207-20.2207a28.36045,28.36045,0,0,1,20.93945-8.21973q11.45947.24023,18.60059,8.09961,6.95947,7.62158,6.96,19.08008a25.55554,25.55554,0,0,1-6.93066,18.18066Q518.64185,191.38471,507.721,191.74408Zm-17.16016-46.5q-8.76123,6.84082-8.75977,17.52051a24.1873,24.1873,0,0,0,6.54,16.55957q9.23877,10.26123,20.46,10.26074a19.71561,19.71561,0,0,0,10.2002-2.76074,20.62294,20.62294,0,0,0,7.58984-7.71,21.07527,21.07527,0,0,0,2.66992-10.46973q0-10.19971-8.04-19.5a22.50161,22.50161,0,0,0-17.7002-8.33984A20.69513,20.69513,0,0,0,490.5608,145.24408Zm-4.74023,28.08008a8.34739,8.34739,0,0,1-1.19922.12012q-1.26123,0,1.5-.98926a55.72382,55.72382,0,0,1,6.47949-1.83008,35.87928,35.87928,0,0,1,7.25977-.96,10.8424,10.8424,0,0,1,6.48047,2.33984q2.45947,2.2207,4.91992,4.37988a8.24572,8.24572,0,0,0,5.16016,2.33984,13.76849,13.76849,0,0,0,5.7002-1.44043,28.896,28.896,0,0,0,4.5-2.63965L528.721,173.205a.05318.05318,0,0,1,.05957.05957,8.25955,8.25955,0,0,1-1.01953,1.37988q-2.40088,3.06006-7.91992,5.46a24.47653,24.47653,0,0,1-7.91992,2.21973q-2.16064.12158-4.86035-2.09961-2.40088-2.16064-4.7998-4.25977a11.296,11.296,0,0,0-5.94043-2.64062q-.95947-.05859-2.81934-.2998a18.88148,18.88148,0,0,0-2.40039-.17969A40.93272,40.93272,0,0,0,485.82056,173.32416Z"
     id="path22" />
  <g
     aria-label="serif"
     transform="translate(57.02042 185.11441)"
     style="font-weight:700;font-size:18px;font-family:LiberationSans-Bold, 'Liberation Sans'"
     id="text24">
    <path
       d="m 9.2724609,-2.7773438 q 0,1.3798829 -1.133789,2.17089849 -1.125,0.78222656 -3.1201172,0.78222656 -1.9599609,0 -3.0058594,-0.61523438 Q 0.97558594,-1.0634766 0.6328125,-2.3730469 l 2.1708984,-0.3251953 q 0.1845704,0.6767578 0.6328125,0.9580078 0.4570313,0.28125 1.5820313,0.28125 1.0371094,0 1.5117187,-0.2636718 0.4746094,-0.2636719 0.4746094,-0.8261719 0,-0.4570313 -0.3867187,-0.7207032 Q 6.2402344,-3.5419922 5.3261719,-3.7265625 3.234375,-4.1396484 2.5048828,-4.4912109 1.7753906,-4.8515625 1.3886719,-5.4140625 1.0107422,-5.9853516 1.0107422,-6.8115234 q 0,-1.3623047 1.0458984,-2.1181641 1.0546875,-0.7646484 2.9794922,-0.7646484 1.6962891,0 2.7246094,0.6591796 1.0371094,0.6591797 1.2919922,1.9072266 L 6.8642578,-6.8994141 Q 6.7587891,-7.4794922 6.3457031,-7.7607422 5.9326172,-8.0507813 5.0361328,-8.0507813 q -0.8789062,0 -1.3183594,0.2285157 -0.4394531,0.2197265 -0.4394531,0.7470703 0,0.4130859 0.3339844,0.6591797 0.3427734,0.2373047 1.1425781,0.3955078 1.1162109,0.2285156 1.9775391,0.4746094 0.8701172,0.2373047 1.3886719,0.571289 0.5273437,0.3339844 0.8349609,0.8613282 0.3164062,0.5185546 0.3164062,1.3359374 z"
       style="font-weight:700;font-size:18px;font-family:LiberationSans-Bold, 'Liberation Sans'"
       id="path872" />
    <path
       d="m 15.169922,0.17578125 q -2.144531,0 -3.295899,-1.26562495 -1.151367,-1.2744141 -1.151367,-3.7089844 0,-2.3554688 1.168946,-3.6210938 1.168945,-1.265625 3.313476,-1.265625 2.047852,0 3.128906,1.3623047 1.081055,1.3535156 1.081055,3.9726563 v 0.070312 H 13.31543 q 0,1.3886718 0.509765,2.1005859 0.518555,0.703125 1.467774,0.703125 1.30957,0 1.652343,-1.1337891 l 2.329102,0.2021485 q -1.010742,2.58398435 -4.104492,2.58398435 z m 0,-8.30566405 q -0.870117,0 -1.344727,0.6064453 -0.46582,0.6064453 -0.492187,1.6962891 h 3.691406 q -0.07031,-1.1513672 -0.553711,-1.7226563 -0.483398,-0.5800781 -1.300781,-0.5800781 z"
       style="font-weight:700;font-size:18px;font-family:LiberationSans-Bold, 'Liberation Sans'"
       id="path874" />
    <path
       d="m 21.295898,0 v -7.2773437 q 0,-0.7822266 -0.02637,-1.3007813 -0.01758,-0.5273438 -0.04395,-0.9316406 h 2.355469 q 0.02637,0.1582031 0.07031,0.9667968 0.04395,0.7998047 0.04395,1.0634766 h 0.03516 q 0.360351,-1.0019531 0.641601,-1.40625 0.28125,-0.4130859 0.667969,-0.6064453 0.386719,-0.2021484 0.966797,-0.2021484 0.474609,0 0.764648,0.1318359 v 2.0654297 q -0.597656,-0.1318359 -1.054687,-0.1318359 -0.922852,0 -1.441406,0.7470703 -0.509766,0.7470703 -0.509766,2.2148437 V 0 Z"
       style="font-weight:700;font-size:18px;font-family:LiberationSans-Bold, 'Liberation Sans'"
       id="path876" />
    <path
       d="m 28.291992,-11.223633 v -1.819336 h 2.469727 v 1.819336 z m 0,11.223633 v -9.5097656 h 2.469727 V 0 Z"
       style="font-weight:700;font-size:18px;font-family:LiberationSans-Bold, 'Liberation Sans'"
       id="path878" />
    <path
       d="M 36.18457,-7.8398437 V 0 h -2.460937 v -7.8398437 h -1.388672 v -1.6699219 h 1.388672 V -10.50293 q 0,-1.291992 0.685547,-1.916015 0.685547,-0.624024 2.083007,-0.624024 0.694336,0 1.564454,0.140625 v 1.590821 q -0.360352,-0.0791 -0.720704,-0.0791 -0.632812,0 -0.896484,0.254883 -0.254883,0.246094 -0.254883,0.878906 v 0.7470704 h 1.872071 v 1.6699219 z"
       style="font-weight:700;font-size:18px;font-family:LiberationSans-Bold, 'Liberation Sans'"
       id="path880" />
  </g>
  <g
     aria-label="sans-serif"
     transform="translate(9.99894 89.42473)"
     style="font-weight:700;font-size:18px;font-family:LiberationSans-Bold, 'Liberation Sans'"
     id="text26">
    <path
       d="m 9.2724609,-2.7773438 q 0,1.3798829 -1.133789,2.17089849 -1.125,0.78222656 -3.1201172,0.78222656 -1.9599609,0 -3.0058594,-0.61523438 Q 0.97558594,-1.0634766 0.6328125,-2.3730469 l 2.1708984,-0.3251953 q 0.1845704,0.6767578 0.6328125,0.9580078 0.4570313,0.28125 1.5820313,0.28125 1.0371094,0 1.5117187,-0.2636718 0.4746094,-0.2636719 0.4746094,-0.8261719 0,-0.4570313 -0.3867187,-0.7207032 Q 6.2402344,-3.5419922 5.3261719,-3.7265625 3.234375,-4.1396484 2.5048828,-4.4912109 1.7753906,-4.8515625 1.3886719,-5.4140625 1.0107422,-5.9853516 1.0107422,-6.8115234 q 0,-1.3623047 1.0458984,-2.1181641 1.0546875,-0.7646484 2.9794922,-0.7646484 1.6962891,0 2.7246094,0.6591796 1.0371094,0.6591797 1.2919922,1.9072266 L 6.8642578,-6.8994141 Q 6.7587891,-7.4794922 6.3457031,-7.7607422 5.9326172,-8.0507813 5.0361328,-8.0507813 q -0.8789062,0 -1.3183594,0.2285157 -0.4394531,0.2197265 -0.4394531,0.7470703 0,0.4130859 0.3339844,0.6591797 0.3427734,0.2373047 1.1425781,0.3955078 1.1162109,0.2285156 1.9775391,0.4746094 0.8701172,0.2373047 1.3886719,0.571289 0.5273437,0.3339844 0.8349609,0.8613282 0.3164062,0.5185546 0.3164062,1.3359374 z"
       style="font-weight:700;font-size:18px;font-family:LiberationSans-Bold, 'Liberation Sans'"
       id="path851" />
    <path
       d="m 13.473633,0.17578125 q -1.379883,0 -2.15332,-0.74707031 -0.773438,-0.75585934 -0.773438,-2.11816404 0,-1.4765625 0.958008,-2.25 0.966797,-0.7734375 2.794922,-0.7910156 l 2.047851,-0.035156 v -0.4833984 q 0,-0.9316407 -0.325195,-1.3798828 -0.325195,-0.4570313 -1.063477,-0.4570313 -0.685546,0 -1.010742,0.3164063 -0.316406,0.3076171 -0.395508,1.0283203 l -2.575195,-0.1230469 q 0.237305,-1.3886719 1.265625,-2.100586 1.037109,-0.7207031 2.821289,-0.7207031 1.801758,0 2.777344,0.8876953 0.975586,0.8876954 0.975586,2.522461 V -2.8125 q 0,0.7998047 0.175781,1.1074219 0.18457,0.2988281 0.606445,0.2988281 0.28125,0 0.544922,-0.052734 v 1.33593753 q -0.219726,0.05273437 -0.395508,0.09667968 -0.175781,0.04394532 -0.351562,0.0703125 -0.175781,0.02636719 -0.37793,0.04394531 -0.193359,0.01757813 -0.457031,0.01757813 -0.931641,0 -1.379883,-0.45703125 -0.439453,-0.45703125 -0.527344,-1.3447266 h -0.05273 Q 15.56543,0.17578125 13.473633,0.17578125 Z m 2.874023,-4.57910155 -1.265625,0.017578 q -0.861328,0.035156 -1.221679,0.1933594 -0.360352,0.1494141 -0.553711,0.4658203 -0.184571,0.3164062 -0.184571,0.84375 0,0.6767578 0.307618,1.0107422 0.316406,0.3251953 0.83496,0.3251953 0.580079,0 1.054688,-0.3164062 0.483398,-0.3164063 0.755859,-0.8701172 0.272461,-0.5625 0.272461,-1.1865235 z"
       style="font-weight:700;font-size:18px;font-family:LiberationSans-Bold, 'Liberation Sans'"
       id="path853" />
    <path
       d="m 27.457031,0 v -5.3349609 q 0,-2.5048828 -1.696289,-2.5048828 -0.896484,0 -1.450195,0.7734375 -0.544922,0.7646484 -0.544922,1.96875 V 0 h -2.469727 v -7.3828125 q 0,-0.7646484 -0.02637,-1.2480469 -0.01758,-0.4921875 -0.04395,-0.8789062 h 2.355469 q 0.02637,0.1669922 0.07031,0.8964843 0.04395,0.7207032 0.04395,0.9931641 h 0.03516 q 0.500976,-1.0898437 1.256836,-1.5820312 0.755859,-0.4921875 1.801757,-0.4921875 1.511719,0 2.320313,0.9316406 0.808594,0.9316406 0.808594,2.7246094 V 0 Z"
       style="font-weight:700;font-size:18px;font-family:LiberationSans-Bold, 'Liberation Sans'"
       id="path855" />
    <path
       d="m 40.31543,-2.7773438 q 0,1.3798829 -1.133789,2.17089849 -1.125,0.78222656 -3.120118,0.78222656 -1.959961,0 -3.005859,-0.61523438 -1.037109,-0.62402347 -1.379883,-1.93359377 l 2.170899,-0.3251953 q 0.18457,0.6767578 0.632812,0.9580078 0.457031,0.28125 1.582031,0.28125 1.03711,0 1.511719,-0.2636718 0.47461,-0.2636719 0.47461,-0.8261719 0,-0.4570313 -0.386719,-0.7207032 -0.37793,-0.2724609 -1.291992,-0.4570312 -2.091797,-0.4130859 -2.821289,-0.7646484 -0.729493,-0.3603516 -1.116211,-0.9228516 -0.37793,-0.5712891 -0.37793,-1.3974609 0,-1.3623047 1.045898,-2.1181641 1.054688,-0.7646484 2.979493,-0.7646484 1.696289,0 2.724609,0.6591796 1.037109,0.6591797 1.291992,1.9072266 l -2.188476,0.2285156 q -0.105469,-0.5800781 -0.518555,-0.8613281 -0.413086,-0.2900391 -1.30957,-0.2900391 -0.878907,0 -1.31836,0.2285157 -0.439453,0.2197265 -0.439453,0.7470703 0,0.4130859 0.333984,0.6591797 0.342774,0.2373047 1.142579,0.3955078 1.11621,0.2285156 1.977539,0.4746094 0.870117,0.2373047 1.388671,0.571289 0.527344,0.3339844 0.834961,0.8613282 0.316407,0.5185546 0.316407,1.3359374 z"
       style="font-weight:700;font-size:18px;font-family:LiberationSans-Bold, 'Liberation Sans'"
       id="path857" />
    <path
       d="m 41.765625,-3.5947266 v -2.1445312 h 4.570312 v 2.1445312 z"
       style="font-weight:700;font-size:18px;font-family:LiberationSans-Bold, 'Liberation Sans'"
       id="path859" />
    <path
       d="m 56.34668,-2.7773438 q 0,1.3798829 -1.133789,2.17089849 -1.125,0.78222656 -3.120118,0.78222656 -1.959961,0 -3.005859,-0.61523438 -1.037109,-0.62402347 -1.379883,-1.93359377 l 2.170899,-0.3251953 q 0.18457,0.6767578 0.632812,0.9580078 0.457031,0.28125 1.582031,0.28125 1.03711,0 1.511719,-0.2636718 0.47461,-0.2636719 0.47461,-0.8261719 0,-0.4570313 -0.386719,-0.7207032 -0.37793,-0.2724609 -1.291992,-0.4570312 -2.091797,-0.4130859 -2.821289,-0.7646484 -0.729493,-0.3603516 -1.116211,-0.9228516 -0.37793,-0.5712891 -0.37793,-1.3974609 0,-1.3623047 1.045898,-2.1181641 1.054688,-0.7646484 2.979493,-0.7646484 1.696289,0 2.724609,0.6591796 1.037109,0.6591797 1.291992,1.9072266 l -2.188476,0.2285156 q -0.105469,-0.5800781 -0.518555,-0.8613281 -0.413086,-0.2900391 -1.30957,-0.2900391 -0.878907,0 -1.31836,0.2285157 -0.439453,0.2197265 -0.439453,0.7470703 0,0.4130859 0.333984,0.6591797 0.342774,0.2373047 1.142579,0.3955078 1.11621,0.2285156 1.977539,0.4746094 0.870117,0.2373047 1.388671,0.571289 0.527344,0.3339844 0.834961,0.8613282 0.316407,0.5185546 0.316407,1.3359374 z"
       style="font-weight:700;font-size:18px;font-family:LiberationSans-Bold, 'Liberation Sans'"
       id="path861" />
    <path
       d="m 62.244141,0.17578125 q -2.144532,0 -3.295899,-1.26562495 -1.151367,-1.2744141 -1.151367,-3.7089844 0,-2.3554688 1.168945,-3.6210938 1.168946,-1.265625 3.313477,-1.265625 2.047851,0 3.128906,1.3623047 1.081055,1.3535156 1.081055,3.9726563 v 0.070312 h -6.09961 q 0,1.3886718 0.509766,2.1005859 0.518555,0.703125 1.467773,0.703125 1.309571,0 1.652344,-1.1337891 l 2.329102,0.2021485 q -1.010742,2.58398435 -4.104492,2.58398435 z m 0,-8.30566405 q -0.870118,0 -1.344727,0.6064453 -0.46582,0.6064453 -0.492187,1.6962891 h 3.691406 q -0.07031,-1.1513672 -0.553711,-1.7226563 -0.483399,-0.5800781 -1.300781,-0.5800781 z"
       style="font-weight:700;font-size:18px;font-family:LiberationSans-Bold, 'Liberation Sans'"
       id="path863" />
    <path
       d="m 68.370117,0 v -7.2773437 q 0,-0.7822266 -0.02637,-1.3007813 -0.01758,-0.5273438 -0.04394,-0.9316406 h 2.355468 q 0.02637,0.1582031 0.07031,0.9667968 0.04394,0.7998047 0.04394,1.0634766 h 0.03516 q 0.360352,-1.0019531 0.641602,-1.40625 0.28125,-0.4130859 0.667969,-0.6064453 0.386719,-0.2021484 0.966797,-0.2021484 0.474609,0 0.764648,0.1318359 v 2.0654297 q -0.597656,-0.1318359 -1.054687,-0.1318359 -0.922852,0 -1.441407,0.7470703 -0.509765,0.7470703 -0.509765,2.2148437 V 0 Z"
       style="font-weight:700;font-size:18px;font-family:LiberationSans-Bold, 'Liberation Sans'"
       id="path865" />
    <path
       d="m 75.366211,-11.223633 v -1.819336 h 2.469726 v 1.819336 z m 0,11.223633 v -9.5097656 h 2.469726 V 0 Z"
       style="font-weight:700;font-size:18px;font-family:LiberationSans-Bold, 'Liberation Sans'"
       id="path867" />
    <path
       d="M 83.258789,-7.8398437 V 0 H 80.797852 V -7.8398437 H 79.40918 v -1.6699219 h 1.388672 V -10.50293 q 0,-1.291992 0.685546,-1.916015 0.685547,-0.624024 2.083008,-0.624024 0.694336,0 1.564453,0.140625 v 1.590821 q -0.360351,-0.0791 -0.720703,-0.0791 -0.632812,0 -0.896484,0.254883 -0.254883,0.246094 -0.254883,0.878906 v 0.7470704 h 1.87207 v 1.6699219 z"
       style="font-weight:700;font-size:18px;font-family:LiberationSans-Bold, 'Liberation Sans'"
       id="path869" />
  </g>
  <g
     aria-label="Bisects"
     transform="translate(104.22101 20.19111)"
     style="font-weight:700;font-size:18px;font-family:LiberationSans-Bold, 'Liberation Sans'"
     id="text28">
    <path
       d="m 12.181641,-3.5332031 q 0,1.6875 -1.265625,2.61035154 Q 9.6503906,0 7.4003906,0 h -6.196289 v -12.383789 h 5.6689453 q 2.2675781,0 3.4277341,0.791016 1.168946,0.782226 1.168946,2.3203121 0,1.0546875 -0.588868,1.7841797 -0.580078,0.7207031 -1.7753902,0.9755859 1.5029292,0.1757812 2.2851562,0.9492187 0.791016,0.7646485 0.791016,2.0302735 z M 8.859375,-8.9208984 q 0,-0.834961 -0.5361328,-1.1865236 Q 7.7958984,-10.458984 6.75,-10.458984 H 3.796875 v 3.0673824 h 2.9707031 q 1.0986328,0 1.5908203,-0.3779296 Q 8.859375,-8.15625 8.859375,-8.9208984 Z m 0.7207031,5.1855468 q 0,-1.7402343 -2.4960937,-1.7402343 H 3.796875 v 3.5507812 h 3.3837891 q 1.2480468,0 1.8193359,-0.4482422 0.5800781,-0.4570312 0.5800781,-1.3623047 z"
       style="font-weight:700;font-size:18px;font-family:LiberationSans-Bold, 'Liberation Sans'"
       id="path929" />
    <path
       d="m 14.264648,-11.223633 v -1.819336 h 2.469727 v 1.819336 z m 0,11.223633 v -9.5097656 h 2.469727 V 0 Z"
       style="font-weight:700;font-size:18px;font-family:LiberationSans-Bold, 'Liberation Sans'"
       id="path931" />
    <path
       d="m 27.272461,-2.7773438 q 0,1.3798829 -1.133789,2.17089849 -1.125,0.78222656 -3.120117,0.78222656 -1.959961,0 -3.00586,-0.61523438 -1.037109,-0.62402347 -1.379883,-1.93359377 l 2.170899,-0.3251953 q 0.18457,0.6767578 0.632812,0.9580078 0.457032,0.28125 1.582032,0.28125 1.037109,0 1.511718,-0.2636718 0.47461,-0.2636719 0.47461,-0.8261719 0,-0.4570313 -0.386719,-0.7207032 -0.37793,-0.2724609 -1.291992,-0.4570312 -2.091797,-0.4130859 -2.821289,-0.7646484 -0.729492,-0.3603516 -1.116211,-0.9228516 -0.37793,-0.5712891 -0.37793,-1.3974609 0,-1.3623047 1.045899,-2.1181641 1.054687,-0.7646484 2.979492,-0.7646484 1.696289,0 2.724609,0.6591796 1.03711,0.6591797 1.291992,1.9072266 l -2.188476,0.2285156 q -0.105469,-0.5800781 -0.518555,-0.8613281 -0.413086,-0.2900391 -1.30957,-0.2900391 -0.878906,0 -1.31836,0.2285157 -0.439453,0.2197265 -0.439453,0.7470703 0,0.4130859 0.333985,0.6591797 0.342773,0.2373047 1.142578,0.3955078 1.116211,0.2285156 1.977539,0.4746094 0.870117,0.2373047 1.388672,0.571289 0.527343,0.3339844 0.834961,0.8613282 0.316406,0.5185546 0.316406,1.3359374 z"
       style="font-weight:700;font-size:18px;font-family:LiberationSans-Bold, 'Liberation Sans'"
       id="path933" />
    <path
       d="m 33.169922,0.17578125 q -2.144531,0 -3.295899,-1.26562495 -1.151367,-1.2744141 -1.151367,-3.7089844 0,-2.3554688 1.168946,-3.6210938 1.168945,-1.265625 3.313476,-1.265625 2.047852,0 3.128906,1.3623047 1.081055,1.3535156 1.081055,3.9726563 v 0.070312 H 31.31543 q 0,1.3886718 0.509765,2.1005859 0.518555,0.703125 1.467774,0.703125 1.30957,0 1.652343,-1.1337891 l 2.329102,0.2021485 q -1.010742,2.58398435 -4.104492,2.58398435 z m 0,-8.30566405 q -0.870117,0 -1.344727,0.6064453 -0.46582,0.6064453 -0.492187,1.6962891 h 3.691406 q -0.07031,-1.1513672 -0.553711,-1.7226563 -0.483398,-0.5800781 -1.300781,-0.5800781 z"
       style="font-weight:700;font-size:18px;font-family:LiberationSans-Bold, 'Liberation Sans'"
       id="path935" />
    <path
       d="m 43.259766,0.17578125 q -2.16211,0 -3.339844,-1.28320315 -1.177735,-1.2919922 -1.177735,-3.5947265 0,-2.3554688 1.186524,-3.6650391 1.186523,-1.3183594 3.366211,-1.3183594 1.678711,0 2.777344,0.84375 1.098632,0.84375 1.379882,2.3291016 l -2.487304,0.1230469 q -0.105469,-0.7294922 -0.527344,-1.1601563 -0.421875,-0.4394531 -1.195313,-0.4394531 -1.907226,0 -1.907226,3.1904297 0,3.2871094 1.942383,3.2871094 0.703125,0 1.177734,-0.4394532 0.474609,-0.4482422 0.588867,-1.3271484 l 2.478516,0.1142578 q -0.131836,0.9755859 -0.703125,1.7402344 -0.5625,0.76464841 -1.485352,1.18652341 -0.922851,0.41308594 -2.074218,0.41308594 z"
       style="font-weight:700;font-size:18px;font-family:LiberationSans-Bold, 'Liberation Sans'"
       id="path937" />
    <path
       d="m 51.75,0.15820312 q -1.089844,0 -1.678711,-0.58886718 Q 49.482422,-1.0283203 49.482422,-2.2324219 V -7.8398437 H 48.27832 v -1.6699219 h 1.327149 l 0.773437,-2.2324224 h 1.546875 v 2.2324224 h 1.801758 v 1.6699219 h -1.801758 v 4.9394531 q 0,0.6943359 0.263672,1.0283203 0.263672,0.3251953 0.817383,0.3251953 0.290039,0 0.826172,-0.1230469 V -0.140625 Q 52.918945,0.15820312 51.75,0.15820312 Z"
       style="font-weight:700;font-size:18px;font-family:LiberationSans-Bold, 'Liberation Sans'"
       id="path939" />
    <path
       d="m 63.342773,-2.7773438 q 0,1.3798829 -1.133789,2.17089849 -1.125,0.78222656 -3.120117,0.78222656 -1.959961,0 -3.005859,-0.61523438 -1.03711,-0.62402347 -1.379883,-1.93359377 l 2.170898,-0.3251953 q 0.184571,0.6767578 0.632813,0.9580078 0.457031,0.28125 1.582031,0.28125 1.03711,0 1.511719,-0.2636718 0.474609,-0.2636719 0.474609,-0.8261719 0,-0.4570313 -0.386718,-0.7207032 -0.37793,-0.2724609 -1.291993,-0.4570312 -2.091797,-0.4130859 -2.821289,-0.7646484 -0.729492,-0.3603516 -1.116211,-0.9228516 -0.377929,-0.5712891 -0.377929,-1.3974609 0,-1.3623047 1.045898,-2.1181641 1.054688,-0.7646484 2.979492,-0.7646484 1.696289,0 2.72461,0.6591796 1.037109,0.6591797 1.291992,1.9072266 l -2.188477,0.2285156 q -0.105468,-0.5800781 -0.518554,-0.8613281 -0.413086,-0.2900391 -1.309571,-0.2900391 -0.878906,0 -1.318359,0.2285157 -0.439453,0.2197265 -0.439453,0.7470703 0,0.4130859 0.333984,0.6591797 0.342774,0.2373047 1.142578,0.3955078 1.116211,0.2285156 1.977539,0.4746094 0.870118,0.2373047 1.388672,0.571289 0.527344,0.3339844 0.834961,0.8613282 0.316406,0.5185546 0.316406,1.3359374 z"
       style="font-weight:700;font-size:18px;font-family:LiberationSans-Bold, 'Liberation Sans'"
       id="path941" />
  </g>
  <g
     aria-label="Meets"
     transform="translate(199.66349 20.19111)"
     style="font-weight:700;font-size:18px;font-family:LiberationSans-Bold, 'Liberation Sans'"
     id="text30">
    <path
       d="m 11.487305,0 v -7.5058594 q 0,-0.2548828 0,-0.5097656 0.0088,-0.2548828 0.08789,-2.188477 -0.624023,2.3642583 -0.922851,3.2958989 L 8.4199219,0 H 6.5742187 L 4.3417969,-6.9082031 3.4013672,-10.204102 q 0.1054687,2.0390629 0.1054687,2.6982426 V 0 H 1.2041016 v -12.383789 h 3.4716796 l 2.2148438,6.9257812 0.1933594,0.6679687 0.421875,1.6611328 0.5537109,-1.9863281 2.2763677,-7.2685546 h 3.454101 V 0 Z"
       style="font-weight:700;font-size:18px;font-family:LiberationSans-Bold, 'Liberation Sans'"
       id="path918" />
    <path
       d="m 20.162109,0.17578125 q -2.144531,0 -3.295898,-1.26562495 -1.151367,-1.2744141 -1.151367,-3.7089844 0,-2.3554688 1.168945,-3.6210938 1.168945,-1.265625 3.313477,-1.265625 2.047851,0 3.128906,1.3623047 1.081055,1.3535156 1.081055,3.9726563 v 0.070312 h -6.09961 q 0,1.3886718 0.509766,2.1005859 0.518554,0.703125 1.467773,0.703125 1.309571,0 1.652344,-1.1337891 l 2.329102,0.2021485 q -1.010743,2.58398435 -4.104493,2.58398435 z m 0,-8.30566405 q -0.870117,0 -1.344726,0.6064453 -0.465821,0.6064453 -0.492188,1.6962891 h 3.691407 q -0.07031,-1.1513672 -0.553711,-1.7226563 -0.483399,-0.5800781 -1.300782,-0.5800781 z"
       style="font-weight:700;font-size:18px;font-family:LiberationSans-Bold, 'Liberation Sans'"
       id="path920" />
    <path
       d="m 30.181641,0.17578125 q -2.144532,0 -3.295899,-1.26562495 -1.151367,-1.2744141 -1.151367,-3.7089844 0,-2.3554688 1.168945,-3.6210938 1.168946,-1.265625 3.313477,-1.265625 2.047851,0 3.128906,1.3623047 1.081055,1.3535156 1.081055,3.9726563 v 0.070312 h -6.09961 q 0,1.3886718 0.509766,2.1005859 0.518555,0.703125 1.467773,0.703125 1.309571,0 1.652344,-1.1337891 l 2.329102,0.2021485 q -1.010742,2.58398435 -4.104492,2.58398435 z m 0,-8.30566405 q -0.870118,0 -1.344727,0.6064453 -0.46582,0.6064453 -0.492187,1.6962891 h 3.691406 q -0.07031,-1.1513672 -0.553711,-1.7226563 -0.483399,-0.5800781 -1.300781,-0.5800781 z"
       style="font-weight:700;font-size:18px;font-family:LiberationSans-Bold, 'Liberation Sans'"
       id="path922" />
    <path
       d="m 38.742187,0.15820312 q -1.089843,0 -1.67871,-0.58886718 -0.588868,-0.59765624 -0.588868,-1.80175784 v -5.6074218 h -1.204101 v -1.6699219 h 1.327148 l 0.773438,-2.2324224 h 1.546875 v 2.2324224 h 1.801758 v 1.6699219 h -1.801758 v 4.9394531 q 0,0.6943359 0.263672,1.0283203 0.263671,0.3251953 0.817382,0.3251953 0.290039,0 0.826172,-0.1230469 v 1.5292969 q -0.914062,0.29882812 -2.083008,0.29882812 z"
       style="font-weight:700;font-size:18px;font-family:LiberationSans-Bold, 'Liberation Sans'"
       id="path924" />
    <path
       d="m 50.334961,-2.7773438 q 0,1.3798829 -1.133789,2.17089849 -1.125,0.78222656 -3.120117,0.78222656 -1.959961,0 -3.00586,-0.61523438 -1.037109,-0.62402347 -1.379883,-1.93359377 l 2.170899,-0.3251953 q 0.18457,0.6767578 0.632812,0.9580078 0.457032,0.28125 1.582032,0.28125 1.037109,0 1.511718,-0.2636718 0.47461,-0.2636719 0.47461,-0.8261719 0,-0.4570313 -0.386719,-0.7207032 -0.37793,-0.2724609 -1.291992,-0.4570312 -2.091797,-0.4130859 -2.821289,-0.7646484 -0.729492,-0.3603516 -1.116211,-0.9228516 -0.37793,-0.5712891 -0.37793,-1.3974609 0,-1.3623047 1.045899,-2.1181641 1.054687,-0.7646484 2.979492,-0.7646484 1.696289,0 2.724609,0.6591796 1.03711,0.6591797 1.291992,1.9072266 l -2.188476,0.2285156 q -0.105469,-0.5800781 -0.518555,-0.8613281 -0.413086,-0.2900391 -1.30957,-0.2900391 -0.878906,0 -1.31836,0.2285157 -0.439453,0.2197265 -0.439453,0.7470703 0,0.4130859 0.333985,0.6591797 0.342773,0.2373047 1.142578,0.3955078 1.116211,0.2285156 1.977539,0.4746094 0.870117,0.2373047 1.388672,0.571289 0.527343,0.3339844 0.834961,0.8613282 0.316406,0.5185546 0.316406,1.3359374 z"
       style="font-weight:700;font-size:18px;font-family:LiberationSans-Bold, 'Liberation Sans'"
       id="path926" />
  </g>
  <g
     aria-label="Outside"
     transform="translate(285.10272 20.19111)"
     style="font-weight:700;font-size:18px;font-family:LiberationSans-Bold, 'Liberation Sans'"
     id="text32">
    <path
       d="m 13.245117,-6.2490234 q 0,1.9335937 -0.764648,3.4013671 -0.764649,1.4677735 -2.188477,2.25000005 -1.4238279,0.7734375 -3.3222654,0.7734375 -2.9179688,0 -4.5791016,-1.71386715 -1.65234375,-1.7226563 -1.65234375,-4.7109375 0,-2.9794922 1.65234375,-4.6494146 1.6523437,-1.669921 4.5966797,-1.669921 2.9443359,0 4.5966793,1.6875 1.661133,1.6874996 1.661133,4.6318356 z m -2.645508,0 q 0,-2.0039063 -0.9492184,-3.1376954 -0.9492187,-1.1425782 -2.6630859,-1.1425782 -1.7402344,0 -2.6894531,1.1337892 -0.9492188,1.125 -0.9492188,3.1464844 0,2.0390625 0.9667969,3.2167968 0.9755859,1.1689454 2.6542969,1.1689454 1.7402343,0 2.680664,-1.1425782 0.9492184,-1.1425781 0.9492184,-3.243164 z"
       style="font-weight:700;font-size:18px;font-family:LiberationSans-Bold, 'Liberation Sans'"
       id="path903" />
    <path
       d="m 17.578125,-9.5097656 v 5.3349609 q 0,2.5048828 1.6875,2.5048828 0.896484,0 1.441406,-0.7646484 0.553711,-0.7734375 0.553711,-1.9775391 v -5.0976562 h 2.469727 v 7.3828125 q 0,1.2128906 0.07031,2.1269531 h -2.355469 q -0.105468,-1.265625 -0.105468,-1.8896484 h -0.04395 q -0.492187,1.08105465 -1.256836,1.57324215 -0.755859,0.4921875 -1.801757,0.4921875 -1.511719,0 -2.320313,-0.92285156 -0.808594,-0.93164059 -0.808594,-2.72460939 v -6.0380859 z"
       style="font-weight:700;font-size:18px;font-family:LiberationSans-Bold, 'Liberation Sans'"
       id="path905" />
    <path
       d="m 28.6875,0.15820312 q -1.089844,0 -1.678711,-0.58886718 Q 26.419922,-1.0283203 26.419922,-2.2324219 V -7.8398437 H 25.21582 v -1.6699219 h 1.327149 l 0.773437,-2.2324224 h 1.546875 v 2.2324224 h 1.801758 v 1.6699219 h -1.801758 v 4.9394531 q 0,0.6943359 0.263672,1.0283203 0.263672,0.3251953 0.817383,0.3251953 0.290039,0 0.826172,-0.1230469 V -0.140625 Q 29.856445,0.15820312 28.6875,0.15820312 Z"
       style="font-weight:700;font-size:18px;font-family:LiberationSans-Bold, 'Liberation Sans'"
       id="path907" />
    <path
       d="m 40.280273,-2.7773438 q 0,1.3798829 -1.133789,2.17089849 -1.125,0.78222656 -3.120117,0.78222656 -1.959961,0 -3.005859,-0.61523438 -1.03711,-0.62402347 -1.379883,-1.93359377 l 2.170898,-0.3251953 q 0.184571,0.6767578 0.632813,0.9580078 0.457031,0.28125 1.582031,0.28125 1.03711,0 1.511719,-0.2636718 0.474609,-0.2636719 0.474609,-0.8261719 0,-0.4570313 -0.386718,-0.7207032 -0.37793,-0.2724609 -1.291993,-0.4570312 -2.091797,-0.4130859 -2.821289,-0.7646484 -0.729492,-0.3603516 -1.116211,-0.9228516 -0.377929,-0.5712891 -0.377929,-1.3974609 0,-1.3623047 1.045898,-2.1181641 1.054688,-0.7646484 2.979492,-0.7646484 1.696289,0 2.72461,0.6591796 1.037109,0.6591797 1.291992,1.9072266 l -2.188477,0.2285156 q -0.105468,-0.5800781 -0.518554,-0.8613281 -0.413086,-0.2900391 -1.309571,-0.2900391 -0.878906,0 -1.318359,0.2285157 -0.439453,0.2197265 -0.439453,0.7470703 0,0.4130859 0.333984,0.6591797 0.342774,0.2373047 1.142578,0.3955078 1.116211,0.2285156 1.977539,0.4746094 0.870118,0.2373047 1.388672,0.571289 0.527344,0.3339844 0.834961,0.8613282 0.316406,0.5185546 0.316406,1.3359374 z"
       style="font-weight:700;font-size:18px;font-family:LiberationSans-Bold, 'Liberation Sans'"
       id="path909" />
    <path
       d="m 42.28418,-11.223633 v -1.819336 h 2.469726 v 1.819336 z M 42.28418,0 v -9.5097656 h 2.469726 V 0 Z"
       style="font-weight:700;font-size:18px;font-family:LiberationSans-Bold, 'Liberation Sans'"
       id="path911" />
    <path
       d="m 53.4375,0 q -0.03516,-0.13183594 -0.08789,-0.65917969 -0.04395,-0.53613281 -0.04395,-0.88769531 h -0.03516 q -0.799805,1.72265625 -3.041016,1.72265625 -1.661133,0 -2.566406,-1.29199215 -0.905274,-1.3007813 -0.905274,-3.6298828 0,-2.3642579 0.949219,-3.647461 0.958008,-1.2919922 2.707031,-1.2919922 1.010743,0 1.740235,0.421875 0.738281,0.421875 1.133789,1.256836 h 0.01758 l -0.01758,-1.5644532 v -3.4716799 h 2.469726 v 10.9687502 q 0,0.8789063 0.07031,2.0742188 z m -0.114258,-4.8076172 q 0,-1.5380859 -0.518555,-2.3642578 -0.509765,-0.8349609 -1.511718,-0.8349609 -0.993164,0 -1.476563,0.8085937 -0.483398,0.7998047 -0.483398,2.4521485 0,3.234375 1.942383,3.234375 0.975586,0 1.511718,-0.8525391 0.536133,-0.8613281 0.536133,-2.4433594 z"
       style="font-weight:700;font-size:18px;font-family:LiberationSans-Bold, 'Liberation Sans'"
       id="path913" />
    <path
       d="m 62.173828,0.17578125 q -2.144531,0 -3.295898,-1.26562495 -1.151368,-1.2744141 -1.151368,-3.7089844 0,-2.3554688 1.168946,-3.6210938 1.168945,-1.265625 3.313476,-1.265625 2.047852,0 3.128907,1.3623047 1.081054,1.3535156 1.081054,3.9726563 v 0.070312 h -6.099609 q 0,1.3886718 0.509766,2.1005859 0.518554,0.703125 1.467773,0.703125 1.30957,0 1.652344,-1.1337891 l 2.329101,0.2021485 q -1.010742,2.58398435 -4.104492,2.58398435 z m 0,-8.30566405 q -0.870117,0 -1.344726,0.6064453 -0.465821,0.6064453 -0.492188,1.6962891 h 3.691406 q -0.07031,-1.1513672 -0.553711,-1.7226563 -0.483398,-0.5800781 -1.300781,-0.5800781 z"
       style="font-weight:700;font-size:18px;font-family:LiberationSans-Bold, 'Liberation Sans'"
       id="path915" />
  </g>
  <g
     aria-label="“2”"
     transform="translate(398.71933 20.19111)"
     style="font-weight:700;font-size:18px;font-family:LiberationSans-Bold, 'Liberation Sans'"
     id="text34">
    <path
       d="m 5.0888672,-7.3037109 v -1.7138672 q 0,-1.0898439 0.2373047,-1.8896489 0.2373047,-0.799804 0.7382812,-1.476562 h 1.5996094 q -0.5449219,0.685547 -0.8525391,1.423828 -0.2988281,0.729492 -0.2988281,1.3623047 h 1.1162109 v 2.2939454 z m -3.7617188,0 v -1.7138672 q 0,-1.0634769 0.2285157,-1.8720699 0.2285156,-0.817383 0.7207031,-1.494141 h 1.6083984 q -0.5449218,0.685547 -0.852539,1.423828 -0.2988282,0.729492 -0.2988282,1.3623047 h 1.116211 v 2.2939454 z"
       style="font-weight:700;font-size:18px;font-family:LiberationSans-Bold, 'Liberation Sans'"
       id="path896" />
    <path
       d="m 9.6240234,0 v -1.7138672 q 0.4833986,-1.0634766 1.3710936,-2.0742187 0.896485,-1.0107422 2.25,-2.109375 1.300781,-1.0546875 1.819336,-1.7402344 0.527344,-0.6855469 0.527344,-1.3447266 0,-1.6171871 -1.625977,-1.6171871 -0.791015,0 -1.21289,0.430664 -0.413086,0.4218747 -0.536133,1.2744137 l -2.4873048,-0.140625 q 0.2109375,-1.7226567 1.2832028,-2.6279297 1.081055,-0.905273 2.935547,-0.905273 2.003906,0 3.076172,0.914062 1.072266,0.914063 1.072266,2.5664064 0,0.8701172 -0.342774,1.5732422 -0.342773,0.703125 -0.878906,1.3007812 -0.536133,0.5888672 -1.195312,1.1074219 -0.650391,0.5185547 -1.265625,1.0107422 -0.615235,0.4921875 -1.125,0.993164 -0.500977,0.5009766 -0.747071,1.0722657 h 5.748047 V 0 Z"
       style="font-weight:700;font-size:18px;font-family:LiberationSans-Bold, 'Liberation Sans'"
       id="path898" />
    <path
       d="m 26.683594,-10.696289 q 0,1.0634765 -0.228516,1.8808593 -0.219726,0.8085938 -0.729492,1.5117188 h -1.617188 q 1.168946,-1.4765625 1.168946,-2.7949221 h -1.116211 v -2.285156 h 2.522461 z m -3.779297,0 q 0,1.0986327 -0.219727,1.8896484 -0.219726,0.7822265 -0.738281,1.5029297 H 20.34668 q 1.151367,-1.4765625 1.151367,-2.7949221 h -1.116211 v -2.285156 h 2.522461 z"
       style="font-weight:700;font-size:18px;font-family:LiberationSans-Bold, 'Liberation Sans'"
       id="path900" />
  </g>
  <g
     aria-label="Inside"
     transform="translate(479.10315 20.19111)"
     style="font-weight:700;font-size:18px;font-family:LiberationSans-Bold, 'Liberation Sans'"
     id="text36">
    <path
       d="M 1.2041016,0 V -12.383789 H 3.796875 V 0 Z"
       style="font-weight:700;font-size:18px;font-family:LiberationSans-Bold, 'Liberation Sans'"
       id="path883" />
    <path
       d="m 12.410156,0 v -5.3349609 q 0,-2.5048828 -1.696289,-2.5048828 -0.8964842,0 -1.4501951,0.7734375 Q 8.71875,-6.3017578 8.71875,-5.0976562 V 0 H 6.2490234 v -7.3828125 q 0,-0.7646484 -0.026367,-1.2480469 -0.017578,-0.4921875 -0.043945,-0.8789062 h 2.3554688 q 0.026367,0.1669922 0.070312,0.8964843 0.043945,0.7207032 0.043945,0.9931641 h 0.035156 q 0.5009765,-1.0898437 1.2568359,-1.5820312 0.7558593,-0.4921875 1.8017583,-0.4921875 1.511718,0 2.320312,0.9316406 0.808594,0.9316406 0.808594,2.7246094 V 0 Z"
       style="font-weight:700;font-size:18px;font-family:LiberationSans-Bold, 'Liberation Sans'"
       id="path885" />
    <path
       d="m 25.268555,-2.7773438 q 0,1.3798829 -1.133789,2.17089849 -1.125,0.78222656 -3.120118,0.78222656 -1.959961,0 -3.005859,-0.61523438 Q 16.97168,-1.0634766 16.628906,-2.3730469 l 2.170899,-0.3251953 q 0.18457,0.6767578 0.632812,0.9580078 0.457031,0.28125 1.582031,0.28125 1.03711,0 1.511719,-0.2636718 0.47461,-0.2636719 0.47461,-0.8261719 0,-0.4570313 -0.386719,-0.7207032 -0.37793,-0.2724609 -1.291992,-0.4570312 -2.091797,-0.4130859 -2.821289,-0.7646484 -0.729493,-0.3603516 -1.116211,-0.9228516 -0.37793,-0.5712891 -0.37793,-1.3974609 0,-1.3623047 1.045898,-2.1181641 1.054688,-0.7646484 2.979493,-0.7646484 1.696289,0 2.724609,0.6591796 1.037109,0.6591797 1.291992,1.9072266 l -2.188476,0.2285156 q -0.105469,-0.5800781 -0.518555,-0.8613281 -0.413086,-0.2900391 -1.30957,-0.2900391 -0.878907,0 -1.31836,0.2285157 -0.439453,0.2197265 -0.439453,0.7470703 0,0.4130859 0.333984,0.6591797 0.342774,0.2373047 1.142579,0.3955078 1.11621,0.2285156 1.977539,0.4746094 0.870117,0.2373047 1.388671,0.571289 0.527344,0.3339844 0.834961,0.8613282 0.316407,0.5185546 0.316407,1.3359374 z"
       style="font-weight:700;font-size:18px;font-family:LiberationSans-Bold, 'Liberation Sans'"
       id="path887" />
    <path
       d="m 27.272461,-11.223633 v -1.819336 h 2.469726 v 1.819336 z m 0,11.223633 v -9.5097656 h 2.469726 V 0 Z"
       style="font-weight:700;font-size:18px;font-family:LiberationSans-Bold, 'Liberation Sans'"
       id="path889" />
    <path
       d="m 38.425781,0 q -0.03516,-0.13183594 -0.08789,-0.65917969 -0.04395,-0.53613281 -0.04395,-0.88769531 h -0.03516 q -0.799805,1.72265625 -3.041016,1.72265625 -1.661132,0 -2.566406,-1.29199215 -0.905273,-1.3007813 -0.905273,-3.6298828 0,-2.3642579 0.949218,-3.647461 0.958008,-1.2919922 2.707032,-1.2919922 1.010742,0 1.740234,0.421875 0.738281,0.421875 1.133789,1.256836 h 0.01758 l -0.01758,-1.5644532 v -3.4716799 h 2.469727 v 10.9687502 q 0,0.8789063 0.07031,2.0742188 z m -0.114258,-4.8076172 q 0,-1.5380859 -0.518554,-2.3642578 -0.509766,-0.8349609 -1.511719,-0.8349609 -0.993164,0 -1.476563,0.8085937 -0.483398,0.7998047 -0.483398,2.4521485 0,3.234375 1.942383,3.234375 0.975586,0 1.511719,-0.8525391 0.536132,-0.8613281 0.536132,-2.4433594 z"
       style="font-weight:700;font-size:18px;font-family:LiberationSans-Bold, 'Liberation Sans'"
       id="path891" />
    <path
       d="m 47.162109,0.17578125 q -2.144531,0 -3.295898,-1.26562495 -1.151367,-1.2744141 -1.151367,-3.7089844 0,-2.3554688 1.168945,-3.6210938 1.168945,-1.265625 3.313477,-1.265625 2.047851,0 3.128906,1.3623047 1.081055,1.3535156 1.081055,3.9726563 v 0.070312 h -6.09961 q 0,1.3886718 0.509766,2.1005859 0.518554,0.703125 1.467773,0.703125 1.309571,0 1.652344,-1.1337891 l 2.329102,0.2021485 q -1.010743,2.58398435 -4.104493,2.58398435 z m 0,-8.30566405 q -0.870117,0 -1.344726,0.6064453 -0.465821,0.6064453 -0.492188,1.6962891 h 3.691407 q -0.07031,-1.1513672 -0.553711,-1.7226563 -0.483399,-0.5800781 -1.300782,-0.5800781 z"
       style="font-weight:700;font-size:18px;font-family:LiberationSans-Bold, 'Liberation Sans'"
       id="path893" />
  </g>
</svg>
